<svg height="512" viewBox="0 0 64 64" width="512" xmlns="http://www.w3.org/2000/svg"><g id="Box"><path d="m36 3 2 12h23l-6-12z" fill="#a97c50"/><path d="m28 3h-19l-6 12h23z" fill="#a97c50"/><path d="m3 15h58v46h-58z" fill="#cba57c"/><path d="m59 15v30a8 8 0 0 1 -8 8h-48v8h58v-46z" fill="#c49a6c"/><path d="m38 15-2-12h-8l-2 12z" fill="#ffa733"/><path d="m26 35 6.039-5 5.961 5v-20h-12z" fill="#ffb655"/><path d="m9 43h20v12h-20z" fill="#ffeb99"/><g fill="#ff6243"><path d="m18 48h7a1 1 0 0 0 0-2h-7a1 1 0 0 0 0 2z"/><path d="m18 52h7a1 1 0 0 0 0-2h-7a1 1 0 0 0 0 2z"/><path d="m13 48h1a1 1 0 0 0 0-2h-1a1 1 0 0 0 0 2z"/><path d="m13 52h1a1 1 0 0 0 0-2h-1a1 1 0 0 0 0 2z"/></g></g></svg>