<svg height="464pt" viewBox="-16 0 464 464.07616" width="464pt" xmlns="http://www.w3.org/2000/svg"><path d="m180.71875 131.105469 22.464844-23.03125c6.492187-6.679688 6.492187-17.316407 0-24-3.101563-3.175781-7.351563-4.964844-11.789063-4.964844s-8.6875 1.789063-11.789062 4.964844l23.578125-24c6.503906-6.679688 6.503906-17.320313 0-24-3.101563-3.175781-7.351563-4.964844-11.789063-4.964844s-8.6875 1.789063-11.789062 4.964844l-11.832031 12v-32c.128906-5.699219-2.835938-11.019531-7.753907-13.910157-4.914062-2.886718-11.007812-2.886718-15.921875 0-4.917968 2.890626-7.882812 8.210938-7.753906 13.910157v32l-11.746094-11.960938c-3.109375-3.1875-7.375-4.984375-11.828125-4.984375s-8.71875 1.796875-11.828125 4.984375c-6.507812 6.664063-6.550781 17.289063-.09375 24l21.167969 21.867188c-6.617187-4.484375-15.496094-3.578125-21.074219 2.140625-2.359375 2.414062-3.941406 5.480468-4.535156 8.800781-1.066406 5.472656.585938 11.121094 4.433594 15.152344l27.085937 28c-1.160156-1.183594-2.398437-2.457031-3.625-3.742188-3.046875-3.199219-7.261719-5.023437-11.679687-5.050781-4.417969-.027344-8.65625 1.746094-11.742188 4.90625-6.453125 6.597656-6.453125 17.144531 0 23.742188l51.574219 52.144531 50.730469-52c6.492187-6.679688 6.492187-17.316407 0-24-6.0625-6.195313-15.894532-6.621094-22.464844-.96875zm0 0" fill="#70942d"/><path d="m176.039062 88.074219h88v248h-88zm0 0" fill="#63a6d3"/><path d="m264.039062 336.074219h80v-248l-40-40-40 40zm0 0" fill="#4092c9"/><path d="m176.039062 88.074219 40-40h88l-40 40zm0 0" fill="#579fd0"/><path d="m216.039062 16.074219h88v32h-88zm0 0" fill="#d6d9db"/><path d="m176.039062 236.074219v100h88v-188zm0 0" fill="#579fd0"/><path d="m387.964844.0742188c14.703125.2656252 28.347656 7.6992192 36.539062 19.9140622 8.1875 12.210938 9.890625 27.65625 4.558594 41.359375l-83.335938 221.832032c-6.328124 17.261718-22.710937 28.78125-41.097656 28.894531-14.699218-.265625-28.34375-7.699219-36.535156-19.910157-8.191406-12.214843-9.894531-27.660156-4.558594-41.363281l83.328125-221.832031c6.332031-17.261719 22.714844-28.777344 41.101563-28.8945312zm0 0" fill="#d68033"/><path d="m263.535156 250.800781c-5.335937 13.703125-3.632812 29.148438 4.558594 41.363281 8.191406 12.210938 21.835938 19.644532 36.535156 19.910157 18.386719-.113281 34.769532-11.632813 41.097656-28.894531l54.0625-143.90625c-32.890624 25.203124-71.558593 41.789062-112.488281 48.257812zm0 0" fill="#d17726"/><path d="m359.878906 66.546875 15.214844-4.953125 15.625 48.003906-15.214844 4.949219zm0 0" fill="#c96e23"/><path d="m336.429688 122.554688 15.210937-4.953126 15.628906 48-15.210937 4.953126zm0 0" fill="#c96e23"/><path d="m67.378906 75.8125 14.148438-7.476562 29.585937 56.003906-14.148437 7.472656zm0 0" fill="#88b337"/><path d="m42.675781 99.675781 10.730469-11.867187 45.332031 41-10.734375 11.867187zm0 0" fill="#88b337"/><path d="m204.421875 303.820312c-7.003906 4.664063-16.414063 3.195313-21.664063-3.386718l-100-125.496094c-6.554687-7.714844-9.527343-17.847656-8.175781-27.882812 1.351563-10.03125 6.898438-19.019532 15.265625-24.722657 8.351563-5.644531 18.730469-7.410156 28.480469-4.847656s17.917969 9.207031 22.414063 18.230469l69.367187 147.726562c3.414063 7.261719 1 15.929688-5.679687 20.378906zm0 0" fill="#ff7230"/><path d="m111.414062 155.882812-27.128906 20.984376 9.96875 12.511718 26.953125-20.839844zm0 0" fill="#de5718"/><path d="m133.421875 189.136719-24.222656 18.992187 9.976562 12.523438 24.125-18.914063zm0 0" fill="#de5718"/><path d="m248.039062 196.074219c0 24.300781-19.699218 44-44 44-24.300781 0-44-19.699219-44-44s19.699219-44 44-44c24.300782 0 44 19.699219 44 44zm0 0" fill="#ff9b30"/><path d="m223.902344 156.875c3.628906 16.5-1.25 33.71875-12.996094 45.863281-11.742188 12.144531-28.792969 17.597657-45.402344 14.519531 9.070313 16.621094 27.757813 25.574219 46.394532 22.226563 18.640624-3.34375 33.046874-18.242187 35.769531-36.980469 2.722656-18.738281-6.851563-37.117187-23.765625-45.628906zm0 0" fill="#f28e22"/><path d="m288.039062 192.074219-24 16-24-16-24 16-24-16-24 16-24-16-24 16-24-16v240c0 17.671875 14.324219 32 32 32h184v-256zm0 0" fill="#f0ae62"/><path d="m360.039062 208.074219-24-16-24 16v256h40c17.671876 0 32-14.328125 32-32v-240zm0 0" fill="#e6994e"/><path d="m127.804688 448.539062 2.792968-5.601562c8.835938-17.671875 13.4375-37.160156 13.441406-56.917969.0625-11.5625-5.796874-22.355469-15.53125-28.597656-9.734374-6.246094-21.984374-7.074219-32.46875-2.195313v76.847657c.007813 12.582031 7.402344 23.984375 18.886719 29.128906 5.574219-2.6875 10.101563-7.136719 12.878907-12.664063zm0 0" fill="#eda047"/><path d="m72.039062 376.074219h-16v-32c0-8.835938-7.164062-16-16-16v-16c17.671876 0 32 14.328125 32 32zm0 0" fill="#965735"/><path d="m86.671875 464.074219c-4.363281 0-8.667969-1.015625-12.570313-2.96875l-10.0625-5.03125-10.066406 5.03125c-3.902344 1.953125-8.203125 2.96875-12.566406 2.96875-10.644531 0-20.375-6.015625-25.136719-15.535157l-2.792969-5.601562c-8.835937-17.671875-13.4374995-37.160156-13.4374995-56.917969-.0039063-18.75 15.1953125-33.949219 33.9414065-33.945312 9.003906 0 17.636719 3.578125 24 9.945312l6.058593 6.054688 6.054688-6.054688c6.367188-6.367187 15-9.945312 24-9.945312 18.75-.003907 33.949219 15.195312 33.945312 33.945312 0 19.765625-4.601562 39.261719-13.441406 56.941407l-2.792968 5.601562c-4.765626 9.511719-14.496094 15.515625-25.132813 15.511719zm0 0" fill="#e3584b"/><path d="m112.582031 357.601562c-18.863281 54.328126-68.902343 81.472657-95.449219 92.402344 7.390626 12.886719 23.558594 17.761719 36.839844 11.101563l10.066406-5.03125 10.0625 5.03125c13.882813 6.945312 30.765626 1.320312 37.703126-12.566407l2.792968-5.601562c8.835938-17.671875 13.4375-37.160156 13.441406-56.917969-.003906-11.480469-5.824218-22.175781-15.457031-28.417969zm0 0" fill="#d64740"/></svg>